<svg width="93" height="29" viewBox="0 0 93 29" fill="none" xmlns="http://www.w3.org/2000/svg">
<path d="M33.4613 9.04191C33.2267 8.79223 33.1015 8.48015 33.1015 8.10564V0.00692749H31.4746V7.93399C31.4746 8.48015 31.5998 8.99509 31.8344 9.43202C32.0691 9.86894 32.4132 10.2278 32.8512 10.4931C33.2892 10.7428 33.8055 10.8832 34.3999 10.8832H37.3565V9.43202H34.3999C34.0088 9.41641 33.696 9.29158 33.4613 9.04191Z" fill="#452B4E"/>
<path d="M44.6935 3.28387C44.0678 2.90937 43.3325 2.73772 42.5347 2.73772C41.7213 2.73772 41.0017 2.92497 40.3759 3.28387C39.7502 3.65838 39.2496 4.15772 38.8898 4.7819C38.53 5.40608 38.3423 6.12388 38.3423 6.8885C38.3423 7.66872 38.53 8.37092 38.8898 8.9951C39.2496 9.61928 39.7502 10.1186 40.3759 10.4931C41.0017 10.8676 41.7213 11.0393 42.5347 11.0393C43.3482 11.0393 44.0678 10.852 44.6935 10.4931C45.3192 10.1186 45.8198 9.61928 46.1796 8.9951C46.5394 8.37092 46.7115 7.65312 46.7115 6.8885C46.7115 6.10828 46.5238 5.40608 46.1796 4.7819C45.8198 4.15772 45.3192 3.65838 44.6935 3.28387ZM42.5504 9.6973C42.0185 9.6973 41.5648 9.57247 41.1737 9.32279C40.7827 9.07312 40.4698 8.74543 40.2508 8.32411C40.0318 7.90279 39.9223 7.41905 39.9223 6.9041C39.9223 6.37355 40.0318 5.90542 40.2508 5.4841C40.4698 5.06278 40.7827 4.73509 41.1737 4.48542C41.5648 4.23574 42.0185 4.11091 42.5504 4.11091C43.0666 4.11091 43.5202 4.23574 43.8957 4.48542C44.2868 4.73509 44.584 5.06278 44.803 5.4841C45.022 5.90542 45.1315 6.38916 45.1315 6.9041C45.1315 7.43466 45.022 7.90279 44.803 8.32411C44.584 8.74543 44.2868 9.07312 43.8957 9.32279C43.5202 9.57247 43.0666 9.6973 42.5504 9.6973Z" fill="#452B4E"/>
<path d="M54.2985 3.28387C53.6727 2.90937 52.9375 2.73772 52.1397 2.73772C51.3262 2.73772 50.6066 2.92497 49.9809 3.28387C49.3552 3.65838 48.8546 4.15772 48.4948 4.7819C48.135 5.40608 47.9473 6.12388 47.9473 6.8885C47.9473 7.66872 48.135 8.37092 48.4948 8.9951C48.8546 9.61928 49.3552 10.1186 49.9809 10.4931C50.6066 10.8676 51.3262 11.0393 52.1397 11.0393C52.9531 11.0393 53.6727 10.852 54.2985 10.4931C54.9242 10.1186 55.4248 9.61928 55.7846 8.9951C56.1444 8.37092 56.3165 7.65312 56.3165 6.8885C56.3165 6.10828 56.1288 5.40608 55.7846 4.7819C55.4248 4.15772 54.9242 3.65838 54.2985 3.28387ZM52.1397 9.6973C51.6078 9.6973 51.1542 9.57247 50.7631 9.32279C50.372 9.07312 50.0591 8.74543 49.8401 8.32411C49.6211 7.90279 49.5116 7.41905 49.5116 6.9041C49.5116 6.37355 49.6211 5.90542 49.8401 5.4841C50.0591 5.06278 50.372 4.73509 50.7631 4.48542C51.1542 4.23574 51.6078 4.11091 52.1397 4.11091C52.6559 4.11091 53.1096 4.23574 53.485 4.48542C53.8761 4.73509 54.1733 5.06278 54.3923 5.4841C54.6114 5.90542 54.7209 6.38916 54.7209 6.9041C54.7209 7.43466 54.6114 7.90279 54.3923 8.32411C54.1733 8.74543 53.8761 9.07312 53.485 9.32279C53.1096 9.57247 52.6559 9.6973 52.1397 9.6973Z" fill="#452B4E"/>
<path d="M65.6086 9.13554C65.9528 8.52697 66.1092 7.80916 66.1092 6.98213C66.1092 6.32674 65.9997 5.73377 65.812 5.21882C65.6086 4.70388 65.3271 4.23574 64.9673 3.87684C64.6075 3.50233 64.1695 3.22145 63.6689 3.0186C63.1683 2.83134 62.6208 2.73772 62.0107 2.73772C61.2441 2.73772 60.5402 2.90937 59.9301 3.23706C59.32 3.56475 58.8194 4.04849 58.4596 4.67267C58.0998 5.29685 57.9277 6.06146 57.9277 6.95092V14.2538H59.4921V9.61928C59.6485 9.85335 59.8519 10.0718 60.0709 10.2747C60.3525 10.5243 60.6966 10.7116 61.0564 10.852C61.4319 10.9925 61.8229 11.0549 62.2297 11.0549C62.9649 11.0549 63.6376 10.8832 64.2164 10.5555C64.7952 10.2279 65.2645 9.74411 65.6086 9.13554ZM60.7435 4.4386C61.119 4.22014 61.5414 4.0953 61.995 4.0953C62.4643 4.0953 62.8867 4.20453 63.2621 4.4386C63.6376 4.67267 63.9504 4.98476 64.1695 5.40608C64.4041 5.8274 64.5136 6.32674 64.5136 6.9041C64.5136 7.46587 64.4041 7.9496 64.1851 8.37092C63.9661 8.79224 63.6532 9.11994 63.2778 9.354C62.9023 9.58807 62.48 9.71291 61.995 9.71291C61.5257 9.71291 61.1033 9.60367 60.7279 9.36961C60.3525 9.15115 60.0396 8.82345 59.8206 8.40213C59.6016 7.98081 59.4921 7.48147 59.4921 6.9041C59.4921 6.34234 59.6016 5.843 59.8206 5.42168C60.0709 4.98476 60.3681 4.65706 60.7435 4.4386Z" fill="#452B4E"/>
<path d="M33.4613 24.1002C33.2267 23.8505 33.1015 23.5384 33.1015 23.1639V15.0496H31.4746V22.9767C31.4746 23.5228 31.5998 24.0378 31.8344 24.4747C32.0691 24.9116 32.4132 25.2705 32.8512 25.5358C33.2892 25.7855 33.8055 25.9259 34.3999 25.9259H37.3565V24.4747H34.3999C34.0088 24.4747 33.696 24.3499 33.4613 24.1002Z" fill="#452B4E"/>
<path d="M44.2398 18.3266C43.6923 17.9677 43.004 17.796 42.1749 17.796C41.424 17.796 40.7357 17.9833 40.1726 18.3422C39.5938 18.7011 39.1557 19.2004 38.8272 19.8402C38.4987 20.4644 38.3423 21.1822 38.3423 21.9624C38.3423 22.7582 38.53 23.4604 38.9211 24.0534C39.2965 24.6464 39.8284 25.1145 40.5167 25.4422C41.1894 25.7699 41.9716 25.9259 42.8319 25.9259H44.9125V24.5683H42.8007C42.3157 24.5683 41.862 24.4903 41.4553 24.3187C41.0486 24.1626 40.7201 23.913 40.4698 23.5853C40.2351 23.2888 40.0787 22.9143 40.0161 22.4929H45.8198L45.8355 22.4305C45.8511 22.3369 45.8668 22.2277 45.8824 22.1028C45.8824 21.978 45.8824 21.8688 45.8824 21.7439C45.8824 21.0105 45.7416 20.3395 45.4757 19.7466C45.1941 19.1536 44.7874 18.6699 44.2398 18.3266ZM41.2676 19.3252C41.5335 19.2004 41.8308 19.1224 42.1749 19.1224C42.5034 19.1224 42.785 19.1692 43.0197 19.2628C43.2543 19.3565 43.4577 19.4969 43.6298 19.6529C43.7862 19.809 43.927 19.9962 44.0208 20.1991C44.1147 20.4019 44.1929 20.6048 44.2242 20.8233C44.2555 21.0105 44.2711 21.1822 44.2868 21.3538H39.9848C40.0161 21.1041 40.0631 20.8545 40.1569 20.6048C40.2508 20.3239 40.4072 20.0743 40.5949 19.8558C40.7827 19.6373 41.0173 19.4501 41.2676 19.3252Z" fill="#452B4E"/>
<path d="M53.4381 18.3266C52.8437 17.9676 52.1085 17.7804 51.2637 17.7804C50.3877 17.7804 49.6368 17.9676 49.0111 18.3266C48.3853 18.7011 47.9004 19.2004 47.5719 19.8246C47.2434 20.4488 47.0713 21.1666 47.0713 21.9312C47.0713 22.6958 47.2277 23.398 47.5249 24.0222C47.8222 24.662 48.2602 25.1613 48.8233 25.5358C49.3865 25.9103 50.0592 26.0976 50.8257 26.0976C51.3576 26.0976 51.8269 26.0039 52.218 25.8323C52.609 25.6606 52.9532 25.4266 53.2191 25.1457C53.4225 24.9272 53.5946 24.7088 53.7354 24.4903V25.9103H55.3154V21.8844C55.3154 21.1197 55.1433 20.4175 54.8304 19.7934C54.5175 19.2004 54.0482 18.7011 53.4381 18.3266ZM51.2481 19.1536C51.7487 19.1536 52.2023 19.2784 52.5778 19.5125C52.9532 19.7466 53.2504 20.0899 53.4538 20.4956C53.6572 20.9169 53.7667 21.385 53.7667 21.9156C53.7667 22.4461 53.6572 22.9455 53.4381 23.3668C53.2191 23.7881 52.9219 24.1314 52.5465 24.3811C52.171 24.6151 51.733 24.74 51.2324 24.74C50.7006 24.74 50.2313 24.6151 49.8715 24.3655C49.496 24.1158 49.2144 23.7881 49.0111 23.3668C48.8077 22.9455 48.7138 22.4773 48.7138 21.9624C48.7138 21.4318 48.8233 20.9481 49.0267 20.5268C49.2301 20.1055 49.5273 19.7778 49.9027 19.5281C50.2469 19.2784 50.7006 19.1536 51.2481 19.1536Z" fill="#452B4E"/>
<path d="M57.99 18.5762C57.5833 18.9819 57.3799 19.5437 57.3799 20.2615V25.9259H58.9442V20.3551C58.9442 20.0274 59.0381 19.7778 59.2102 19.6061C59.3822 19.4345 59.6325 19.3408 59.9454 19.3408H61.3689V17.9833H59.6795C58.9599 17.9677 58.3967 18.1705 57.99 18.5762Z" fill="#452B4E"/>
<path d="M68.1585 18.2329C67.5954 17.9364 66.954 17.7804 66.2344 17.7804C65.5148 17.7804 64.8734 17.9364 64.3102 18.2329C63.7471 18.5294 63.3091 18.9507 62.9806 19.4813C62.6677 20.0118 62.4956 20.636 62.4956 21.3382V25.9259H64.0599V21.3538C64.0599 20.9013 64.1694 20.5112 64.3572 20.1835C64.5605 19.8558 64.8265 19.6061 65.155 19.4189C65.4835 19.2472 65.8433 19.1536 66.2187 19.1536C66.5942 19.1536 66.954 19.2472 67.2825 19.4189C67.611 19.5905 67.8769 19.8558 68.0803 20.1835C68.2837 20.5112 68.3775 20.9013 68.3775 21.3538V25.9259H69.9419V21.3382C69.9419 20.636 69.7854 20.0118 69.4569 19.4813C69.1597 18.9507 68.7217 18.5294 68.1585 18.2329Z" fill="#452B4E"/>
<path d="M72.8357 14.8312C72.5541 14.8312 72.3195 14.9404 72.1161 15.1433C71.9127 15.3461 71.8032 15.5958 71.8032 15.8611C71.8032 16.1419 71.9127 16.376 72.1161 16.5789C72.3195 16.7817 72.5698 16.891 72.8357 16.891C73.1173 16.891 73.3519 16.7817 73.5553 16.5789C73.7587 16.376 73.8682 16.1263 73.8682 15.8611C73.8682 15.5802 73.7587 15.3461 73.5553 15.1433C73.3676 14.9404 73.1173 14.8312 72.8357 14.8312Z" fill="#452B4E"/>
<path d="M73.6181 17.9677H72.0381V25.9259H73.6181V17.9677Z" fill="#452B4E"/>
<path d="M81.3456 18.2329C80.7824 17.9364 80.141 17.7804 79.4214 17.7804C78.7018 17.7804 78.0604 17.9364 77.4973 18.2329C76.9341 18.5294 76.4961 18.9507 76.1676 19.4813C75.8547 20.0118 75.6826 20.636 75.6826 21.3382V25.9259H77.247V21.3538C77.247 20.9013 77.3565 20.5112 77.5442 20.1835C77.7476 19.8558 78.0135 19.6061 78.342 19.4189C78.6705 19.2472 79.0303 19.1536 79.4058 19.1536C79.7812 19.1536 80.141 19.2472 80.4695 19.4189C80.798 19.5905 81.064 19.8558 81.2673 20.1835C81.4707 20.5112 81.5646 20.9013 81.5646 21.3538V25.9259H83.1289V21.3382C83.1289 20.636 82.9725 20.0118 82.644 19.4813C82.3467 18.9507 81.9087 18.5294 81.3456 18.2329Z" fill="#452B4E"/>
<path d="M92.4993 19.7934C92.1551 19.1692 91.6858 18.6698 91.0601 18.3109C90.45 17.952 89.7148 17.7804 88.8857 17.7804C88.0253 17.7804 87.29 17.9676 86.68 18.3266C86.0699 18.6855 85.6006 19.1848 85.2721 19.809C84.9435 20.4332 84.7871 21.1354 84.7871 21.9156C84.7871 22.7114 84.9435 23.4292 85.2721 24.0378C85.6006 24.662 86.0542 25.1457 86.6174 25.489C87.1962 25.8323 87.8532 26.0195 88.6041 26.0195C89.0578 26.0195 89.4801 25.9415 89.8399 25.8011C90.1997 25.6606 90.5282 25.4734 90.8098 25.2237C91.0445 25.0365 91.2478 24.818 91.4199 24.5683V26.5033C91.4199 26.8466 91.326 27.1275 91.1227 27.3303C90.935 27.5332 90.6534 27.6424 90.2936 27.6424H86.3827V29H90.5752C91.326 29 91.9205 28.7815 92.3429 28.3446C92.7809 27.9077 92.9999 27.3147 92.9999 26.5813V21.9624C92.9999 21.1666 92.8278 20.4175 92.4993 19.7934ZM87.556 19.5281C87.9314 19.294 88.3694 19.1692 88.8857 19.1692C89.4019 19.1692 89.8712 19.294 90.231 19.5281C90.6065 19.7622 90.9037 20.1055 91.107 20.5112C91.3104 20.9325 91.4199 21.4006 91.4199 21.9312C91.4199 22.4461 91.3104 22.9143 91.0914 23.32C90.8724 23.7257 90.5752 24.0534 90.1997 24.2875C89.8243 24.5215 89.3706 24.6464 88.87 24.6464C88.3538 24.6464 87.9158 24.5215 87.5403 24.2875C87.1649 24.0534 86.8833 23.7101 86.68 23.3044C86.4766 22.8987 86.3671 22.4305 86.3671 21.9468C86.3671 21.4162 86.4766 20.9481 86.68 20.5268C86.8833 20.1055 87.1806 19.7778 87.556 19.5281Z" fill="#452B4E"/>
<path d="M23.6842 1.44254C23.6842 0.131771 22.0886 -0.492407 21.1969 0.459464L17.2079 3.95486C16.019 3.11222 14.5798 2.61288 13.0154 2.61288C11.5762 2.61288 10.2309 3.0498 9.08893 3.78321L5.56916 0.896389C4.66185 -0.00866925 3.11315 0.631113 3.11315 1.91068L1.56445 21.4943V21.7595C1.56445 25.9727 4.81828 25.9415 8.7917 25.9415H22.3545C23.9658 25.9415 25.2798 24.5527 25.2798 22.8518V21.4787L23.6842 1.44254Z" fill="#FF805D"/>
<path d="M7.18019 18.9039C10.6274 18.9039 13.4219 16.1164 13.4219 12.6777C13.4219 9.23912 10.6274 6.45157 7.18019 6.45157C3.73299 6.45157 0.938477 9.23912 0.938477 12.6777C0.938477 16.1164 3.73299 18.9039 7.18019 18.9039Z" fill="white"/>
<path d="M7.18032 19.8402C3.22254 19.8402 0 16.6413 0 12.6777C0 8.71422 3.22254 5.5153 7.18032 5.5153C11.1381 5.5153 14.3606 8.72982 14.3606 12.6777C14.3606 16.6257 11.1381 19.8402 7.18032 19.8402ZM7.18032 7.40344C4.255 7.40344 1.87721 9.77532 1.87721 12.6777C1.87721 15.5802 4.255 17.9677 7.18032 17.9677C10.1056 17.9677 12.4834 15.5958 12.4834 12.6777C12.4834 9.75972 10.1056 7.40344 7.18032 7.40344Z" fill="#452B4E"/>
<path d="M19.6636 18.9039C23.1108 18.9039 25.9053 16.1164 25.9053 12.6777C25.9053 9.23912 23.1108 6.45157 19.6636 6.45157C16.2164 6.45157 13.4219 9.23912 13.4219 12.6777C13.4219 16.1164 16.2164 18.9039 19.6636 18.9039Z" fill="white"/>
<path d="M19.6637 19.8402C15.7059 19.8402 12.4834 16.6257 12.4834 12.6777C12.4834 8.72982 15.7059 5.5153 19.6637 5.5153C23.6215 5.5153 26.844 8.72982 26.844 12.6777C26.844 16.6257 23.6215 19.8402 19.6637 19.8402ZM19.6637 7.40344C16.7384 7.40344 14.3606 9.77532 14.3606 12.6934C14.3606 15.6114 16.7384 17.9833 19.6637 17.9833C22.589 17.9833 24.9668 15.6114 24.9668 12.6934C24.9668 9.77532 22.589 7.40344 19.6637 7.40344Z" fill="#452B4E"/>
<path d="M7.18009 14.6751C8.28596 14.6751 9.18244 13.7809 9.18244 12.6777C9.18244 11.5746 8.28596 10.6804 7.18009 10.6804C6.07422 10.6804 5.17773 11.5746 5.17773 12.6777C5.17773 13.7809 6.07422 14.6751 7.18009 14.6751Z" fill="#452B4E"/>
<path d="M19.4447 14.6751C20.5506 14.6751 21.4471 13.7809 21.4471 12.6777C21.4471 11.5746 20.5506 10.6804 19.4447 10.6804C18.3389 10.6804 17.4424 11.5746 17.4424 12.6777C17.4424 13.7809 18.3389 14.6751 19.4447 14.6751Z" fill="#452B4E"/>
<path d="M14.0007 20.0274L15.7215 17.4215C15.9875 16.9846 15.6746 16.0327 15.174 16.0327H11.7324C11.2319 16.0327 10.919 16.9846 11.1849 17.4215L12.9057 20.0274C13.156 20.4331 13.7504 20.4331 14.0007 20.0274Z" fill="#452B4E"/>
</svg>
